# xmcd CD database file
#
# Track frame offsets:
#	150
#	27721
#	50582
#	81186
#	101285
#	126764
#	148305
#	171168
#	191553
#	215112
#
# Disc length: 2992 seconds
#
# Revision: 0
# Processed by: cddbd v1.5.1PL0 Copyright (c) Steve Scherf et al.
# Submitted via: CDex 1.50beta10
#
DISCID=970bae0a
DTITLE=Candido Fabré y su Banda - La Habana Quiere Guarachar Contigo
DYEAR=2000
DGENRE=Salsa
TTITLE0=La Habana Quiere Guarachar Contigo
TTITLE1=La Nueva Fuerza
TTITLE2=El Son De Oriente
TTITLE3=Al ritmo De La Banda
TTITLE4=Carnaval en Oriente
TTITLE5=El Cinturon del taxi
TTITLE6=Hasta que salga el sol
TTITLE7=Tus Ojos Lindos
TTITLE8=El baile del ula ula
TTITLE9=Descarga Cubana
EXTD=YEAR: 2000
EXTT0=
EXTT1=
EXTT2=
EXTT3=
EXTT4=
EXTT5=
EXTT6=
EXTT7=
EXTT8=
EXTT9=
PLAYORDER=
